<svg xmlns="http://www.w3.org/2000/svg" viewBox="0 0 128 128" width="64" height="64"><path fill="#BFC9D5" d="M72.2,68.2v-8.7H53.5v8.7c0,13.4-5.3,26.3-14.7,35.8h48C77.5,94.4,72.2,81.6,72.2,68.2z"/><path fill="#979FAA" d="M33 104H93V114H33z"/><path fill="#FFF" d="M59,67.7V59h-6v9c0,13.6-5,26.4-14.7,36H33v10h20v-10C59,97.1,59,81.3,59,67.7z"/><path fill="#BFC9D5" d="M80.3,37.1c0-9.5-7.8-17.1-17.5-17.1s-17.5,7.7-17.5,17.1c0,5.1,2.3,9.7,6,12.9h23.1C78,46.9,80.3,42.3,80.3,37.1z"/><path fill="none" stroke="#454B54" stroke-linecap="round" stroke-linejoin="round" stroke-miterlimit="10" stroke-width="6" d="M80.3,37.1c0-9.5-7.8-17.1-17.5-17.1s-17.5,7.7-17.5,17.1c0,5.1,2.3,9.7,6,12.9h23.1C78,46.9,80.3,42.3,80.3,37.1z"/><path fill="#FFF" d="M54.1,40.6c-1.7,0-3.1-1.3-3.1-3c0-6.4,5.3-11.6,11.8-11.6c1.7,0,3.1,1.3,3.1,3s-1.4,3-3.1,3c-3.1,0-5.7,2.5-5.7,5.6C57.1,39.3,55.8,40.6,54.1,40.6z"/><path fill="none" stroke="#454B54" stroke-linecap="round" stroke-linejoin="round" stroke-miterlimit="10" stroke-width="6" d="M45 59L81 59M53.5 59.5v8.7c0 13-4.9 25.4-13.7 34.9M85.5 102.6C77 93.2 72.2 80.9 72.2 68.2v-8.7M62.8 104L93 104 93 114 33 114 33 104 45.8 104"/></svg>