<?xml version="1.0" encoding="UTF-8" standalone="yes"?>
<svg xmlns="http://www.w3.org/2000/svg" xmlns:xlink="http://www.w3.org/1999/xlink" viewBox="0 0 50 50" version="1.1" width="100" height="100" fill="#000000">
  <g id="surface1">
    <path style=" " d="M 38.84375 -0.0625 C 37.058594 0.0351563 35.667969 1.0625 35.03125 2.75 C 30.152344 7.496094 23.355469 11.929688 17.65625 14.25 C 18.046875 14.277344 18.398438 14.304688 18.6875 14.3125 C 18.945313 14.320313 19.125 14.3125 19.125 14.3125 C 19.675781 14.3125 20.125 14.761719 20.125 15.3125 C 20.125 15.863281 19.675781 16.3125 19.125 16.3125 C 19.125 16.3125 18.761719 16.316406 18.625 16.3125 C 18.59375 16.3125 15.523438 16.207031 13.96875 15.75 C 13.875 15.722656 13.773438 15.625 13.625 15.5625 C 10.144531 14.011719 7.804688 14.726563 6.4375 15.625 C 4.375 16.976563 3.121094 19.742188 3.1875 22.71875 C 3.058594 23.003906 2.878906 23.367188 2.65625 23.78125 C 1.644531 25.667969 0.09375 28.496094 0.09375 31.875 C 0.0546875 34.734375 0.453125 41.894531 4.9375 46.4375 C 7.269531 48.800781 10.296875 50 13.90625 50 C 22.140625 50 26.160156 45.4375 29.09375 42.09375 C 29.792969 41.292969 30.445313 40.515625 31.09375 39.90625 C 32.988281 38.070313 36.65625 36.695313 39.90625 35.46875 C 42.035156 34.664063 44.050781 33.910156 45.5 33.0625 C 49.441406 30.722656 50.871094 26.828125 49.21875 22.90625 C 49.078125 22.574219 48.765625 22.355469 48.40625 22.3125 C 47.527344 22.207031 46.746094 22.285156 46 22.5 C 45.75 22.261719 45.441406 22.023438 45.09375 21.8125 C 44.679688 21.894531 44.765625 22.1875 44.96875 22.90625 C 44.1875 23.277344 43.480469 23.777344 42.84375 24.3125 C 42.5625 24.070313 42.257813 23.804688 41.90625 23.59375 C 41.570313 23.761719 41.695313 24.210938 41.90625 25.1875 C 41.628906 25.453125 41.34375 25.71875 41.09375 25.96875 C 40.660156 26.40625 40.234375 26.796875 39.875 27.09375 C 39.578125 26.742188 39.195313 26.363281 38.6875 26 C 38.121094 26.09375 38.28125 26.488281 38.46875 27.78125 C 37.441406 28.160156 36.484375 28.453125 35.59375 28.65625 C 35.347656 28.449219 35.09375 28.210938 34.8125 28 C 34.382813 28.085938 34.394531 28.335938 34.46875 28.90625 C 33.945313 29.003906 33.410156 29.074219 32.875 29.15625 C 32.59375 28.832031 32.136719 28.257813 31.40625 27.6875 C 30.847656 27.78125 30.972656 28.179688 31.15625 29.4375 C 30.613281 29.523438 30.105469 29.601563 29.5 29.71875 C 29.230469 29.773438 28.976563 29.847656 28.71875 29.90625 L 28.5 29.6875 C 28.25 29.75 28.160156 29.867188 28.125 30.03125 C 24.410156 30.964844 21.957031 32.332031 19.9375 33.4375 C 18.097656 34.449219 16.640625 35.246094 14.84375 35.40625 C 16.976563 34.125 18.566406 32.332031 19.9375 30.8125 C 21.0625 29.5625 22.066406 28.484375 23.09375 27.90625 C 23.558594 28.765625 23.660156 29.160156 24.09375 28.8125 C 24.234375 28.253906 24.296875 27.769531 24.34375 27.34375 C 25.179688 27.007813 26 26.660156 26.78125 26.25 C 27.292969 27.171875 27.46875 27.542969 28 27.1875 C 28.15625 26.5625 28.246094 25.929688 28.28125 25.375 C 29.25 24.785156 30.152344 24.15625 31 23.46875 C 31.429688 24.34375 31.570313 24.664063 32.09375 24.3125 C 32.242188 23.5625 32.304688 22.875 32.34375 22.28125 C 33.082031 21.585938 33.75 20.878906 34.34375 20.125 C 35.503906 21.21875 35.835938 21.761719 36.3125 21.09375 C 36.238281 19.65625 35.921875 18.589844 35.75 18.03125 C 36.039063 17.523438 36.316406 17.019531 36.53125 16.5 C 36.683594 16.144531 36.902344 15.804688 37.15625 15.5 C 38.09375 16.558594 38.34375 17.0625 38.8125 16.5 C 38.890625 15.5625 38.785156 14.75 38.6875 14.125 C 38.894531 13.964844 39.09375 13.789063 39.3125 13.625 C 39.65625 13.367188 40.015625 13.097656 40.375 12.8125 C 41.121094 13.667969 41.367188 14.039063 41.8125 13.59375 C 41.890625 12.808594 41.820313 12.128906 41.75 11.5625 C 42.277344 11.03125 42.777344 10.421875 43.21875 9.71875 C 43.554688 10.171875 43.765625 10.328125 44.09375 10 C 44.148438 9.308594 44.097656 8.6875 44.03125 8.1875 C 44.503906 7.027344 44.824219 5.636719 44.90625 3.9375 C 44.914063 3.78125 44.878906 3.644531 44.8125 3.5 C 43.863281 1.386719 41.273438 -0.183594 38.84375 -0.0625 Z M 39.1875 3.28125 C 39.292969 3.261719 39.386719 3.289063 39.5 3.3125 C 40.398438 3.511719 41.09375 4.09375 41.09375 4.09375 C 41.09375 4.09375 40.3125 4.914063 39.3125 5.3125 C 38.210938 5.8125 37.40625 5.199219 37.90625 4.5 C 37.90625 4.5 38.449219 3.414063 39.1875 3.28125 Z M 9.96875 18.59375 C 11.230469 18.496094 12.125 18.957031 12.5 19.40625 C 12.699219 19.707031 12.210938 20.914063 11.8125 21.8125 C 10.511719 20.511719 8.8125 19.90625 8.8125 19.90625 C 8.8125 19.90625 10.304688 23.304688 9.90625 23.40625 C 8.90625 23.605469 7.898438 23.289063 7.5 22.6875 C 6.898438 21.988281 7.195313 19.40625 8.59375 18.90625 C 9.09375 18.730469 9.546875 18.625 9.96875 18.59375 Z "/>
  </g>
</svg>
